<mxfile host="app.diagrams.net" modified="2023-05-29T19:04:40.657Z" agent="Mozilla/5.0 (Windows NT 10.0; Win64; x64) AppleWebKit/537.36 (KHTML, like Gecko) Chrome/112.0.0.0 Safari/537.36" etag="A1pMVyE8GlG3QrkB4hTg" version="21.3.5" type="github">
  <diagram id="C5RBs43oDa-KdzZeNtuy" name="Page-1">
    <mxGraphModel dx="1195" dy="628" grid="1" gridSize="10" guides="1" tooltips="1" connect="1" arrows="1" fold="1" page="1" pageScale="1" pageWidth="827" pageHeight="1169" math="0" shadow="0">
      <root>
        <mxCell id="WIyWlLk6GJQsqaUBKTNV-0" />
        <mxCell id="WIyWlLk6GJQsqaUBKTNV-1" parent="WIyWlLk6GJQsqaUBKTNV-0" />
        <mxCell id="Zz7mzMd0HVMpb5Xp0QPy-11" value="" style="edgeStyle=orthogonalEdgeStyle;rounded=0;orthogonalLoop=1;jettySize=auto;html=1;fontSize=12;" edge="1" parent="WIyWlLk6GJQsqaUBKTNV-1" source="WIyWlLk6GJQsqaUBKTNV-3" target="WIyWlLk6GJQsqaUBKTNV-6">
          <mxGeometry relative="1" as="geometry" />
        </mxCell>
        <mxCell id="WIyWlLk6GJQsqaUBKTNV-3" value="initialize" style="rounded=1;whiteSpace=wrap;html=1;fontSize=12;glass=0;strokeWidth=1;shadow=0;" parent="WIyWlLk6GJQsqaUBKTNV-1" vertex="1">
          <mxGeometry x="159.5" y="10" width="120" height="40" as="geometry" />
        </mxCell>
        <mxCell id="Zz7mzMd0HVMpb5Xp0QPy-10" value="0" style="edgeStyle=orthogonalEdgeStyle;rounded=0;orthogonalLoop=1;jettySize=auto;html=1;fontSize=16;" edge="1" parent="WIyWlLk6GJQsqaUBKTNV-1" source="WIyWlLk6GJQsqaUBKTNV-6" target="Zz7mzMd0HVMpb5Xp0QPy-5">
          <mxGeometry relative="1" as="geometry" />
        </mxCell>
        <mxCell id="WIyWlLk6GJQsqaUBKTNV-6" value="St" style="rhombus;whiteSpace=wrap;html=1;shadow=0;fontFamily=Helvetica;fontSize=12;align=center;strokeWidth=1;spacing=6;spacingTop=-4;arcSize=20;resizeWidth=0;resizable=1;fixedWidth=0;autosize=0;" parent="WIyWlLk6GJQsqaUBKTNV-1" vertex="1">
          <mxGeometry x="170" y="100" width="99" height="80" as="geometry" />
        </mxCell>
        <mxCell id="Zz7mzMd0HVMpb5Xp0QPy-2" value="1" style="endArrow=classic;html=1;rounded=0;exitX=0;exitY=0.5;exitDx=0;exitDy=0;entryX=-0.006;entryY=0.628;entryDx=0;entryDy=0;entryPerimeter=0;edgeStyle=orthogonalEdgeStyle;fontSize=16;fontStyle=0;fontFamily=Helvetica;" edge="1" parent="WIyWlLk6GJQsqaUBKTNV-1" source="WIyWlLk6GJQsqaUBKTNV-6" target="WIyWlLk6GJQsqaUBKTNV-3">
          <mxGeometry width="50" height="50" relative="1" as="geometry">
            <mxPoint x="350" y="330" as="sourcePoint" />
            <mxPoint x="40" y="210" as="targetPoint" />
            <Array as="points">
              <mxPoint x="140" y="140" />
              <mxPoint x="140" y="35" />
            </Array>
          </mxGeometry>
        </mxCell>
        <mxCell id="Zz7mzMd0HVMpb5Xp0QPy-13" value="" style="edgeStyle=orthogonalEdgeStyle;rounded=0;orthogonalLoop=1;jettySize=auto;html=1;fontSize=12;" edge="1" parent="WIyWlLk6GJQsqaUBKTNV-1" source="Zz7mzMd0HVMpb5Xp0QPy-5" target="Zz7mzMd0HVMpb5Xp0QPy-12">
          <mxGeometry relative="1" as="geometry" />
        </mxCell>
        <mxCell id="Zz7mzMd0HVMpb5Xp0QPy-5" value="generate_mole" style="rounded=1;whiteSpace=wrap;html=1;fontSize=12;glass=0;strokeWidth=1;shadow=0;" vertex="1" parent="WIyWlLk6GJQsqaUBKTNV-1">
          <mxGeometry x="160" y="230" width="120" height="40" as="geometry" />
        </mxCell>
        <mxCell id="Zz7mzMd0HVMpb5Xp0QPy-32" value="" style="edgeStyle=orthogonalEdgeStyle;rounded=0;orthogonalLoop=1;jettySize=auto;html=1;entryX=0.5;entryY=0;entryDx=0;entryDy=0;fontSize=12;" edge="1" parent="WIyWlLk6GJQsqaUBKTNV-1" source="Zz7mzMd0HVMpb5Xp0QPy-6" target="Zz7mzMd0HVMpb5Xp0QPy-7">
          <mxGeometry relative="1" as="geometry" />
        </mxCell>
        <mxCell id="Zz7mzMd0HVMpb5Xp0QPy-6" value="display_mole" style="rounded=1;whiteSpace=wrap;html=1;fontSize=12;glass=0;strokeWidth=1;shadow=0;" vertex="1" parent="WIyWlLk6GJQsqaUBKTNV-1">
          <mxGeometry x="160" y="440" width="120" height="40" as="geometry" />
        </mxCell>
        <mxCell id="Zz7mzMd0HVMpb5Xp0QPy-19" value="" style="edgeStyle=orthogonalEdgeStyle;rounded=0;orthogonalLoop=1;jettySize=auto;html=1;fontSize=12;" edge="1" parent="WIyWlLk6GJQsqaUBKTNV-1" source="Zz7mzMd0HVMpb5Xp0QPy-7" target="Zz7mzMd0HVMpb5Xp0QPy-18">
          <mxGeometry relative="1" as="geometry" />
        </mxCell>
        <mxCell id="Zz7mzMd0HVMpb5Xp0QPy-7" value="check_hit" style="rounded=1;whiteSpace=wrap;html=1;fontSize=12;glass=0;strokeWidth=1;shadow=0;" vertex="1" parent="WIyWlLk6GJQsqaUBKTNV-1">
          <mxGeometry x="160" y="510" width="120" height="40" as="geometry" />
        </mxCell>
        <mxCell id="Zz7mzMd0HVMpb5Xp0QPy-35" value="" style="edgeStyle=orthogonalEdgeStyle;rounded=0;orthogonalLoop=1;jettySize=auto;html=1;fontSize=12;" edge="1" parent="WIyWlLk6GJQsqaUBKTNV-1" source="Zz7mzMd0HVMpb5Xp0QPy-8" target="Zz7mzMd0HVMpb5Xp0QPy-33">
          <mxGeometry relative="1" as="geometry" />
        </mxCell>
        <mxCell id="Zz7mzMd0HVMpb5Xp0QPy-8" value="end_game" style="rounded=1;whiteSpace=wrap;html=1;fontSize=12;glass=0;strokeWidth=1;shadow=0;" vertex="1" parent="WIyWlLk6GJQsqaUBKTNV-1">
          <mxGeometry x="159.5" y="810" width="120" height="40" as="geometry" />
        </mxCell>
        <mxCell id="Zz7mzMd0HVMpb5Xp0QPy-17" value="NO" style="edgeStyle=orthogonalEdgeStyle;rounded=0;orthogonalLoop=1;jettySize=auto;html=1;fontSize=16;" edge="1" parent="WIyWlLk6GJQsqaUBKTNV-1" source="Zz7mzMd0HVMpb5Xp0QPy-12">
          <mxGeometry relative="1" as="geometry">
            <mxPoint x="220" y="440" as="targetPoint" />
          </mxGeometry>
        </mxCell>
        <mxCell id="Zz7mzMd0HVMpb5Xp0QPy-12" value="mole_count = 0" style="rhombus;whiteSpace=wrap;html=1;shadow=0;fontFamily=Helvetica;fontSize=12;align=center;strokeWidth=1;spacing=6;spacingTop=-4;arcSize=20;resizeWidth=0;resizable=1;fixedWidth=0;autosize=0;" vertex="1" parent="WIyWlLk6GJQsqaUBKTNV-1">
          <mxGeometry x="170" y="310" width="99" height="80" as="geometry" />
        </mxCell>
        <mxCell id="Zz7mzMd0HVMpb5Xp0QPy-16" value="YES" style="endArrow=classic;html=1;rounded=0;exitX=1;exitY=0.5;exitDx=0;exitDy=0;edgeStyle=orthogonalEdgeStyle;fontSize=16;" edge="1" parent="WIyWlLk6GJQsqaUBKTNV-1" source="Zz7mzMd0HVMpb5Xp0QPy-12" target="Zz7mzMd0HVMpb5Xp0QPy-8">
          <mxGeometry x="-0.2647" width="50" height="50" relative="1" as="geometry">
            <mxPoint x="389.97" y="302.48" as="sourcePoint" />
            <mxPoint x="280" y="830" as="targetPoint" />
            <Array as="points">
              <mxPoint x="430" y="350" />
              <mxPoint x="430" y="830" />
            </Array>
            <mxPoint as="offset" />
          </mxGeometry>
        </mxCell>
        <mxCell id="Zz7mzMd0HVMpb5Xp0QPy-25" value="NO" style="edgeStyle=orthogonalEdgeStyle;rounded=0;orthogonalLoop=1;jettySize=auto;html=1;fontSize=12;" edge="1" parent="WIyWlLk6GJQsqaUBKTNV-1" source="Zz7mzMd0HVMpb5Xp0QPy-18" target="Zz7mzMd0HVMpb5Xp0QPy-24">
          <mxGeometry relative="1" as="geometry" />
        </mxCell>
        <mxCell id="Zz7mzMd0HVMpb5Xp0QPy-18" value="mole_timer = 50_000_00" style="rhombus;whiteSpace=wrap;html=1;shadow=0;fontFamily=Helvetica;fontSize=12;align=center;strokeWidth=1;spacing=6;spacingTop=-4;arcSize=20;resizeWidth=0;resizable=1;fixedWidth=0;autosize=0;" vertex="1" parent="WIyWlLk6GJQsqaUBKTNV-1">
          <mxGeometry x="170" y="584" width="99" height="80" as="geometry" />
        </mxCell>
        <mxCell id="Zz7mzMd0HVMpb5Xp0QPy-20" value="YES" style="endArrow=classic;html=1;rounded=0;exitX=0.944;exitY=0.549;exitDx=0;exitDy=0;edgeStyle=orthogonalEdgeStyle;exitPerimeter=0;fontSize=16;" edge="1" parent="WIyWlLk6GJQsqaUBKTNV-1" source="Zz7mzMd0HVMpb5Xp0QPy-18" target="Zz7mzMd0HVMpb5Xp0QPy-5">
          <mxGeometry x="-0.1274" width="50" height="50" relative="1" as="geometry">
            <mxPoint x="269.5" y="620" as="sourcePoint" />
            <mxPoint x="280" y="330" as="targetPoint" />
            <Array as="points">
              <mxPoint x="330" y="628" />
              <mxPoint x="330" y="250" />
            </Array>
            <mxPoint as="offset" />
          </mxGeometry>
        </mxCell>
        <mxCell id="Zz7mzMd0HVMpb5Xp0QPy-24" value="switchâŠ•prev=1" style="rhombus;whiteSpace=wrap;html=1;shadow=0;fontFamily=Helvetica;fontSize=12;align=center;strokeWidth=1;spacing=6;spacingTop=-4;arcSize=20;resizeWidth=0;resizable=1;fixedWidth=0;autosize=0;" vertex="1" parent="WIyWlLk6GJQsqaUBKTNV-1">
          <mxGeometry x="170" y="710" width="99" height="80" as="geometry" />
        </mxCell>
        <mxCell id="Zz7mzMd0HVMpb5Xp0QPy-26" value="YES" style="endArrow=classic;html=1;rounded=0;exitX=1;exitY=0.5;exitDx=0;exitDy=0;edgeStyle=orthogonalEdgeStyle;fontSize=16;" edge="1" parent="WIyWlLk6GJQsqaUBKTNV-1" source="Zz7mzMd0HVMpb5Xp0QPy-24" target="Zz7mzMd0HVMpb5Xp0QPy-5">
          <mxGeometry x="0.0717" width="50" height="50" relative="1" as="geometry">
            <mxPoint x="273" y="638" as="sourcePoint" />
            <mxPoint x="280" y="340" as="targetPoint" />
            <Array as="points">
              <mxPoint x="380" y="750" />
              <mxPoint x="380" y="250" />
            </Array>
            <mxPoint as="offset" />
          </mxGeometry>
        </mxCell>
        <mxCell id="Zz7mzMd0HVMpb5Xp0QPy-29" value="NO" style="endArrow=classic;html=1;rounded=0;exitX=0;exitY=0.5;exitDx=0;exitDy=0;entryX=0;entryY=0.5;entryDx=0;entryDy=0;edgeStyle=orthogonalEdgeStyle;fontSize=16;" edge="1" parent="WIyWlLk6GJQsqaUBKTNV-1" source="Zz7mzMd0HVMpb5Xp0QPy-24" target="Zz7mzMd0HVMpb5Xp0QPy-7">
          <mxGeometry width="50" height="50" relative="1" as="geometry">
            <mxPoint x="160" y="735" as="sourcePoint" />
            <mxPoint x="149" y="630" as="targetPoint" />
            <Array as="points">
              <mxPoint x="130" y="750" />
              <mxPoint x="130" y="530" />
            </Array>
          </mxGeometry>
        </mxCell>
        <mxCell id="Zz7mzMd0HVMpb5Xp0QPy-33" value="St" style="rhombus;whiteSpace=wrap;html=1;shadow=0;fontFamily=Helvetica;fontSize=12;align=center;strokeWidth=1;spacing=6;spacingTop=-4;arcSize=20;resizeWidth=0;resizable=1;fixedWidth=0;autosize=0;" vertex="1" parent="WIyWlLk6GJQsqaUBKTNV-1">
          <mxGeometry x="170" y="890" width="99" height="80" as="geometry" />
        </mxCell>
        <mxCell id="Zz7mzMd0HVMpb5Xp0QPy-34" value="1" style="endArrow=classic;html=1;rounded=0;entryX=-0.006;entryY=0.628;entryDx=0;entryDy=0;entryPerimeter=0;edgeStyle=orthogonalEdgeStyle;fontSize=16;" edge="1" parent="WIyWlLk6GJQsqaUBKTNV-1" source="Zz7mzMd0HVMpb5Xp0QPy-33">
          <mxGeometry width="50" height="50" relative="1" as="geometry">
            <mxPoint x="170" y="910" as="sourcePoint" />
            <mxPoint x="159" y="830" as="targetPoint" />
            <Array as="points">
              <mxPoint x="140" y="930" />
              <mxPoint x="140" y="830" />
            </Array>
          </mxGeometry>
        </mxCell>
        <mxCell id="Zz7mzMd0HVMpb5Xp0QPy-37" value="0" style="endArrow=classic;html=1;rounded=0;edgeStyle=orthogonalEdgeStyle;fontSize=16;" edge="1" parent="WIyWlLk6GJQsqaUBKTNV-1" source="Zz7mzMd0HVMpb5Xp0QPy-33" target="WIyWlLk6GJQsqaUBKTNV-3">
          <mxGeometry x="0.0084" width="50" height="50" relative="1" as="geometry">
            <mxPoint x="414" y="940" as="sourcePoint" />
            <mxPoint x="425" y="440" as="targetPoint" />
            <Array as="points">
              <mxPoint x="470" y="930" />
              <mxPoint x="470" y="30" />
            </Array>
            <mxPoint as="offset" />
          </mxGeometry>
        </mxCell>
      </root>
    </mxGraphModel>
  </diagram>
</mxfile>
